<svg width="50.000000" height="26.352783" viewBox="0 0 50 26.3528" fill="none" xmlns="http://www.w3.org/2000/svg" xmlns:xlink="http://www.w3.org/1999/xlink">
	<desc>
			Created with Pixso.
	</desc>
	<defs/>
	<path id="Vector" d="M37.7309 0.317749C37.9344 0.52124 38.0487 0.797241 38.0487 1.08508L38.0487 12.6217C38.0494 12.6376 38.0498 12.6534 38.0498 12.6692C38.0498 12.8489 38.0052 13.026 37.9197 13.1846C37.8267 13.3572 37.6887 13.5012 37.5204 13.6017C37.3521 13.7021 37.1597 13.7552 36.9637 13.7552C36.7676 13.7552 36.5752 13.7021 36.4069 13.6017C36.2386 13.5012 36.1007 13.3571 36.0077 13.1846C35.9222 13.026 35.8776 12.8489 35.8776 12.6693C35.8776 12.6534 35.878 12.6376 35.8787 12.6217L35.8787 1.08508C35.8787 0.797241 35.993 0.52124 36.1965 0.317749C36.4 0.11438 36.6759 0 36.9637 0C37.2515 0 37.5275 0.11438 37.7309 0.317749ZM13.8146 0.317749C14.0186 0.521118 14.1337 0.796997 14.1345 1.08508L14.1345 12.6217C14.1273 12.9056 14.0094 13.1755 13.8061 13.3738C13.6027 13.572 13.33 13.683 13.046 13.683C12.762 13.683 12.4892 13.572 12.2859 13.3738C12.0825 13.1755 11.9646 12.9056 11.9574 12.6217L11.9574 1.08508C11.9583 0.796875 12.0734 0.520874 12.2776 0.317505C12.4817 0.114136 12.7581 0.00012207 13.0463 0.000244141C13.3343 0.000244141 13.6106 0.11438 13.8146 0.317749ZM20.0304 4.76404C20.0849 4.89587 20.1129 5.03711 20.1129 5.17981L20.1129 5.18079L20.1133 5.1792L20.1133 10.4534C20.1133 10.7421 19.9986 11.019 19.7945 11.2231C19.5904 11.4272 19.3135 11.542 19.0248 11.542C18.7361 11.542 18.4592 11.4272 18.2551 11.2231C18.0509 11.019 17.9362 10.7421 17.9362 10.4534L17.9362 5.17981C17.9362 5.03687 17.9644 4.89539 18.0191 4.76331C18.0738 4.63123 18.154 4.51123 18.2551 4.41016C18.3561 4.30908 18.4762 4.22888 18.6082 4.17419C18.7403 4.11951 18.8818 4.09143 19.0248 4.09143C19.1678 4.09143 19.3094 4.11963 19.4414 4.17444C19.5735 4.22925 19.6935 4.30945 19.7946 4.41064C19.8956 4.51184 19.9757 4.63184 20.0304 4.76404ZM8.07254 4.76416C8.12723 4.89624 8.1554 5.03784 8.1554 5.18079L8.1554 10.4543C8.1554 10.743 8.04071 11.0199 7.83655 11.224C7.63242 11.4282 7.35556 11.5428 7.06683 11.5428C6.77814 11.5428 6.50128 11.4282 6.29712 11.224C6.09299 11.0199 5.9783 10.743 5.9783 10.4543L5.9783 5.18079C5.9783 5.03784 6.00647 4.89624 6.06116 4.76416C6.11588 4.6322 6.19604 4.51221 6.29715 4.41113C6.39822 4.31006 6.51822 4.22986 6.6503 4.17517C6.78235 4.12048 6.92389 4.09229 7.06683 4.09229C7.20978 4.09229 7.35135 4.12048 7.4834 4.17517C7.61548 4.22986 7.73547 4.31006 7.83655 4.41113C7.93762 4.51221 8.01782 4.6322 8.07254 4.76416ZM43.9454 4.7627C44.0009 4.89502 44.0296 5.03723 44.0299 5.18079L44.0299 10.4543C44.0298 10.598 44.0013 10.7404 43.9459 10.8729C43.8905 11.0056 43.8094 11.126 43.7073 11.2271C43.6051 11.3281 43.4839 11.408 43.3508 11.4619C43.2176 11.516 43.075 11.5431 42.9313 11.5416C42.7887 11.5415 42.6474 11.5133 42.5157 11.4586C42.384 11.4039 42.2643 11.3237 42.1636 11.2228C42.0628 11.1218 41.983 11.002 41.9286 10.8701C41.8745 10.7389 41.8466 10.5981 41.8466 10.4562L41.8466 5.18005C41.8466 4.89233 41.9608 4.61633 42.1642 4.41284C42.3677 4.20935 42.6436 4.09485 42.9313 4.09473C43.0749 4.09338 43.2173 4.12048 43.3504 4.17444C43.4835 4.22839 43.6045 4.30811 43.7066 4.40906C43.8087 4.51001 43.8899 4.63025 43.9454 4.7627ZM31.7389 4.43115C31.9416 4.62878 32.0591 4.89783 32.0662 5.18079L32.0662 10.4543C32.0662 10.5968 32.0381 10.7379 31.9836 10.8695C31.9291 11.0012 31.8492 11.1208 31.7484 11.2216C31.6477 11.3224 31.528 11.4022 31.3964 11.4568C31.2648 11.5114 31.1237 11.5394 30.9812 11.5394C30.6934 11.5393 30.4174 11.425 30.214 11.2216C30.0105 11.0181 29.8961 10.7421 29.8961 10.4543L29.8961 5.18079C29.9033 4.89783 30.0208 4.62878 30.2235 4.43115C30.4262 4.23352 30.6981 4.12292 30.9812 4.12292C31.2643 4.12292 31.5362 4.23352 31.7389 4.43115ZM49.6819 7.4054C49.8856 7.60913 50 7.88525 50 8.17334L49.9993 10.454L49.9993 10.4556C49.9993 10.5978 49.9714 10.7386 49.9171 10.87C49.8627 11.002 49.7828 11.1219 49.682 11.2229C49.5812 11.324 49.4615 11.4042 49.3297 11.459C49.1979 11.5137 49.0566 11.542 48.9139 11.5421C48.7711 11.542 48.6298 11.5138 48.498 11.4591C48.3661 11.4044 48.2463 11.3241 48.1454 11.2231C48.0446 11.1221 47.9646 11.0022 47.9101 10.8702C47.8558 10.7386 47.8279 10.5977 47.8279 10.4553L47.8279 8.17334C47.8279 7.88525 47.9423 7.60913 48.1459 7.4054C48.3496 7.20166 48.6259 7.08728 48.9139 7.08716C49.202 7.08728 49.4782 7.20166 49.6819 7.4054ZM1.85709 7.40637C2.0611 7.6095 2.17615 7.88538 2.17697 8.17334L2.17709 10.4539C2.16992 10.7378 2.05209 11.0077 1.84872 11.2061C1.64536 11.4043 1.37256 11.5153 1.08853 11.5151C0.804535 11.5153 0.531738 11.4043 0.328369 11.2061C0.125 11.0077 0.00717163 10.7378 0 10.4539L0 8.17261C0.00112915 7.88477 0.116394 7.60901 0.320526 7.40601C0.524628 7.20288 0.800934 7.08899 1.08887 7.08936C1.3768 7.08911 1.65311 7.20312 1.85709 7.40637ZM25.7685 7.40747C25.9712 7.6106 26.0851 7.88586 26.0851 8.17273L26.0851 10.4539C26.0851 10.7417 25.9707 11.0177 25.7672 11.2212C25.5638 11.4247 25.2878 11.5389 25 11.5389C24.7122 11.5389 24.4362 11.4247 24.2328 11.2212C24.0293 11.0177 23.9149 10.7417 23.9149 10.4539L23.9149 8.17261C23.916 7.88477 24.0312 7.60913 24.2351 7.40613C24.4391 7.203 24.7153 7.08911 25.0031 7.08936C25.2903 7.08972 25.5656 7.2041 25.7685 7.40747ZM24.6476 19.4849C24.615 19.4746 23.692 19.2195 22.9337 19.2195C22.0552 19.2195 21.5774 19.5139 21.5774 19.9314C21.5774 20.4606 22.2219 20.6451 22.5823 20.7592L23.1872 20.9515C24.6107 21.4041 25.2586 22.3785 25.2586 23.4369C25.2586 25.6195 23.3393 26.3528 21.6615 26.3528C20.8673 26.3452 20.0754 26.2657 19.2956 26.1154L19.2956 24.1158C19.4886 24.1646 20.4081 24.4395 21.3657 24.4395C22.4566 24.4395 22.958 24.1201 22.958 23.6284C22.958 23.1881 22.524 22.934 21.9803 22.7631C21.8483 22.7188 21.6483 22.6562 21.5122 22.6118C20.2914 22.2256 19.2733 21.5076 19.2733 20.0701C19.2733 18.4452 20.49 17.3541 22.5108 17.3541C23.2313 17.364 23.9483 17.4567 24.6476 17.6305L24.6476 19.4849ZM11.1276 19.9994C10.5627 19.6918 9.9292 19.5322 9.28598 19.5355C7.86591 19.5355 6.88327 20.5217 6.88327 21.8528C6.88327 23.1439 7.82498 24.1724 9.28598 24.1724C9.92868 24.1743 10.5617 24.0159 11.1276 23.7112L11.1276 26.0431C10.4794 26.2423 9.80573 26.3462 9.12762 26.3516C6.66382 26.3516 4.50204 24.6516 4.50204 21.8517C4.50204 19.2581 6.46042 17.3552 9.12836 17.3552C9.80679 17.3564 10.481 17.4617 11.1276 17.6671L11.1276 19.9994ZM34.0112 19.9994C33.4451 19.6924 32.8108 19.5328 32.1668 19.5355C30.7495 19.5355 29.7661 20.5217 29.7661 21.8528C29.7661 23.1439 30.7071 24.1724 32.1668 24.1724C32.8103 24.1737 33.4441 24.0153 34.0112 23.7112L34.0112 26.0431C33.3636 26.2415 32.6907 26.3455 32.0134 26.3516C29.5474 26.3516 27.3829 24.6516 27.3829 21.8517C27.3829 19.2581 29.3412 17.3552 32.0134 17.3552C32.6913 17.3571 33.365 17.4622 34.0112 17.6671L34.0112 19.9994ZM45.4986 21.853C45.4986 24.3384 43.5798 26.3522 40.9084 26.3522C38.2369 26.3522 36.3195 24.3383 36.3195 21.8523C36.3195 19.3717 38.2361 17.3558 40.9077 17.3558C43.5792 17.3558 45.4986 19.3716 45.4986 21.853ZM16.3336 26.1987L14.1413 26.1987L14.1413 17.5103L16.3336 17.5103L16.3336 26.1987ZM40.9077 19.5682C40.6077 19.5654 40.3101 19.6227 40.0327 19.7367C39.7552 19.8507 39.5033 20.0192 39.292 20.2322C39.0807 20.4452 38.9143 20.6984 38.8024 20.9767C38.6955 21.2429 38.6407 21.527 38.6407 21.8136C38.6407 21.8268 38.6408 21.84 38.641 21.853C38.6407 21.8668 38.6406 21.8806 38.6406 21.8944C38.6406 22.1805 38.6953 22.4641 38.8019 22.73C38.9136 23.0085 39.08 23.262 39.2913 23.4751C39.5026 23.6884 39.7545 23.8569 40.0322 23.9711C40.3098 24.0853 40.6075 24.1426 40.9077 24.1398C41.2079 24.1425 41.5056 24.0851 41.7832 23.9709C42.0609 23.8568 42.3128 23.6881 42.5242 23.475C42.7356 23.2618 42.9022 23.0085 43.0141 22.73C43.1211 22.4635 43.176 22.1792 43.176 21.8923Q43.176 21.8727 43.1757 21.853C43.1758 21.8406 43.176 21.8281 43.176 21.8157C43.176 21.5283 43.1208 21.2435 43.0135 20.9767C42.9015 20.6984 42.7349 20.4453 42.5235 20.2323C42.3121 20.0194 42.0603 19.851 41.7827 19.7368C41.5052 19.6228 41.2077 19.5654 40.9077 19.5682ZM48.7449 25.1897L48.3574 25.1897L48.3574 26.1975L48.1977 26.1975L48.1977 25.1906L47.8088 25.1906L47.8088 25.0536L48.7449 25.0536L48.7449 25.1897ZM49.0754 25.0536L49.4177 25.9918L49.4233 25.9918L49.7545 25.0543L49.999 25.0543L49.999 26.1973L49.8358 26.1973L49.8358 25.2599L49.8302 25.2599L49.483 26.1973L49.3326 26.1973L48.9932 25.2599L48.9856 25.2599L48.9856 26.1973L48.8259 26.1973L48.8261 25.0536L49.0754 25.0536Z" fill="#666666" fill-opacity="1.000000" fill-rule="evenodd"/>
</svg>
