<svg width="47.999756" height="19.000000" viewBox="0 0 47.9998 19" fill="none" xmlns="http://www.w3.org/2000/svg" xmlns:xlink="http://www.w3.org/1999/xlink">
	<desc>
			Created with Pixso.
	</desc>
	<defs/>
	<path id="Union" d="M18.8237 4C15.7657 3.98389 14.4487 5.71924 14.4487 5.71924L14.4487 0L11.9997 0L11.9997 9.10352C11.8808 7.43018 11.0243 4 5.99973 4C-0.00427246 4 -0.0272522 8.52686 0.00372314 9.70312C0.00372314 9.70312 -0.293274 15 6.05875 15C11.5187 15 11.7847 11.6758 11.7847 11.6758L9.27673 11.6841C9.27673 11.6841 8.78473 13.5122 6.06973 13.4639C2.57773 13.3989 2.44073 10 2.44073 10L11.9997 10L11.9997 15L14.3157 15L14.4177 13.2661C14.4177 13.2661 15.5277 15 18.7727 15C21.4888 15 23.7256 13.6719 24.426 11.1797C24.1041 14.0942 26.911 15.0112 29.1208 15C31.3907 14.9878 32.6837 14.3398 33.6447 13.1797L33.7458 15.0117L35.9998 15L35.9998 8.19482L35.9932 8.06299C35.9344 6.83105 35.8093 4.21533 30.7227 4.01611C30.7227 4.01611 25.8398 3.60205 25.1797 7L27.7697 7C27.8977 6.58594 28.4407 5.53076 30.5547 5.56982C33.0348 5.61279 33.4878 6.56982 33.4767 8C33.4767 8 31.3467 8.00781 30.6367 8.00781C29.4299 8.01562 25.3888 8.31641 24.5706 10.519C24.6183 10.2217 24.6462 9.91113 24.6527 9.58594C24.7187 6.06299 21.8827 4.01611 18.8237 4ZM37.2417 4L34.4377 4L40.0088 14.5352L37.8597 19L40.5738 19L47.9998 4L45.4648 4L41.3477 12.1841L37.2417 4ZM2.52274 8.51611C2.52274 8.51611 2.69473 5.55078 6.14774 5.55078C9.58572 5.54688 9.58572 8.51611 9.58572 8.51611L2.52274 8.51611ZM18.2657 13.4302C14.4017 13.4771 14.4647 9.54297 14.4647 9.54297C14.4647 9.54297 14.3247 5.67188 18.2577 5.57422C22.1907 5.47705 22.1327 9.625 22.1327 9.625C22.1327 9.625 22.1247 13.3828 18.2657 13.4302ZM29.5468 13.5117C29.5468 13.5117 27.0898 13.5161 26.9447 11.645C26.7928 9.64795 30.7227 9.56592 30.7227 9.56592L33.5027 9.56299C33.4998 9.56335 33.9486 13.5659 29.5468 13.5117Z" fill="#666666" fill-opacity="1.000000" fill-rule="evenodd"/>
</svg>
